<svg xmlns="http://www.w3.org/2000/svg" width="24" height="24" viewBox="0 0 24 24"><defs><style>.a{fill:none;}.b{fill:#fff;}</style></defs><rect class="a" width="24" height="24"/><g transform="translate(-308.779 -491.564)"><path class="b" d="M327.3,494.564h-9.75a2.478,2.478,0,0,0-2.475,2.475v4.784h-3.3v7.366a2.478,2.478,0,0,0,2.475,2.475H327.3a2.478,2.478,0,0,0,2.475-2.475v-12.15A2.477,2.477,0,0,0,327.3,494.564ZM313.43,509.189v-5.715h1.65v5.715a.825.825,0,0,1-1.65,0Zm14.7,0a.825.825,0,0,1-.825.824H316.578a2.457,2.457,0,0,0,.151-.824v-12.15a.826.826,0,0,1,.825-.825h9.75a.826.826,0,0,1,.825.825Z" transform="translate(0 0)"/><rect class="b" width="8.1" height="1.35" rx="0.675" transform="translate(318.221 504.464)"/><rect class="b" width="8.1" height="1.35" rx="0.675" transform="translate(318.221 507.164)"/><path class="b" d="M318.936,498.964v3.6a.9.9,0,0,0,.9.9h6.3a.9.9,0,0,0,.9-.9v-3.6a.9.9,0,0,0-.9-.9h-6.3A.9.9,0,0,0,318.936,498.964Zm6.75,3.15h-5.4v-2.7h5.4Z" transform="translate(-0.716 -0.35)"/></g></svg>